<svg width="183" height="44" viewBox="0 0 183 44" fill="none" xmlns="http://www.w3.org/2000/svg"><path d="M22.591.294h-.83l-1.218 5.72 1.218 5.715h.83l1.218-5.714L22.591.294z" fill="#CCC8C3"/><path d="M22.591 32.25h-.83l-1.218 5.721 1.218 5.721h.83l1.218-5.72-1.218-5.722z" fill="#CCC8C3"/><path d="M15.148 1.463l-.78.283.811 5.788 3.1 4.958.782-.283-.818-5.788-3.095-4.958z" fill="#CCC8C3"/><path d="M26.084 31.488l-.787.289.818 5.788 3.094 4.958.781-.283-.811-5.788-3.095-4.964z" fill="#CCC8C3"/><path d="M8.55 5.104l-.64.535 2.75 5.161 4.607 3.6.634-.536-2.744-5.161L8.55 5.104z" fill="#CCC8C3"/><path d="M29.09 29.58l-.633.536 2.744 5.167 4.607 3.599.64-.535-2.75-5.161-4.607-3.605z" fill="#CCC8C3"/><path d="M3.598 10.782l-.418.72 4.343 3.912 5.56 1.809.419-.72-4.35-3.912-5.554-1.809z" fill="#CCC8C3"/><path d="M31.278 26.763l-.419.72 4.343 3.912 5.561 1.803.419-.72-4.343-3.906-5.561-1.809z" fill="#CCC8C3"/><path d="M.88 17.813l-.142.818 5.42 2.19 5.844-.203.147-.818-5.425-2.19-5.844.203z" fill="#CCC8C3"/><path d="M32.359 23.362l-.148.824 5.425 2.184 5.838-.203.148-.818-5.42-2.19-5.843.203z" fill="#CCC8C3"/><path d="M.738 25.349l.142.818 5.844.203 5.425-2.184-.147-.824-5.844-.203-5.42 2.19z" fill="#CCC8C3"/><path d="M32.21 19.8l.149.818 5.843.203 5.42-2.19-.148-.818-5.837-.203-5.426 2.19z" fill="#CCC8C3"/><path d="M3.18 32.478l.412.72 5.56-1.803 4.35-3.912-.418-.72-5.561 1.809-4.343 3.906z" fill="#CCC8C3"/><path d="M30.86 16.503l.418.72 5.56-1.809 4.343-3.912-.418-.72-5.56 1.809-4.344 3.912z" fill="#CCC8C3"/><path d="M7.91 38.347l.64.535 4.607-3.599 2.744-5.167-.64-.535-4.601 3.605-2.75 5.16z" fill="#CCC8C3"/><path d="M28.457 13.864l.634.535 4.607-3.598 2.75-5.162-.64-.535-4.607 3.599-2.744 5.16z" fill="#CCC8C3"/><path d="M14.363 42.24l.788.283 3.094-4.958.818-5.788-.787-.29-3.095 4.965-.818 5.788z" fill="#CCC8C3"/><path d="M25.297 12.21l.781.282 3.1-4.958.812-5.788-.78-.283-3.095 4.958-.818 5.788z" fill="#CCC8C3"/><path d="M72.669 10.93a4.072 4.072 0 00-1.477-1.015 5.629 5.629 0 00-3.937 0 3.984 3.984 0 00-1.457 1.009 4.36 4.36 0 00-.91 1.556 5.96 5.96 0 00-.32 2.024c-.012.682.096 1.36.32 2.005a4.54 4.54 0 00.91 1.563 3.9 3.9 0 001.457 1.015 5.629 5.629 0 003.937 0 4.072 4.072 0 001.477-1.015c.407-.452.718-.982.916-1.557a5.91 5.91 0 00.32-2.011c.008-.682-.1-1.36-.32-2.006a4.576 4.576 0 00-.916-1.568zm-1.63 5.678a2.172 2.172 0 01-1.846.768 2.147 2.147 0 01-1.79-.768 3.918 3.918 0 010-4.214 2.147 2.147 0 011.79-.77 2.171 2.171 0 011.846.77 3.918 3.918 0 010 4.214z" fill="#CCC8C3"/><path d="M85.06 9.558a3.02 3.02 0 00-1.5.338 3.923 3.923 0 00-1.009.75c-.05.08-.105.08-.154 0a2.952 2.952 0 00-.984-.799 3.223 3.223 0 00-1.458-.307c-.222 0-.443.03-.658.086-.21.057-.415.13-.615.215-.197.08-.386.177-.566.29-.146.09-.282.195-.406.313-.062.061-.117.05-.166-.037l-.191-.566a.184.184 0 00-.184-.11h-1.784a.086.086 0 00-.099.067v9.344a.086.086 0 00.074.099h2.091a.086.086 0 00.093-.074v-5.23a4.682 4.682 0 01.086-.922c.046-.26.14-.511.277-.738.127-.205.305-.375.516-.492.25-.13.53-.19.812-.178.287-.009.57.064.819.209.215.133.394.317.522.535.137.232.233.486.283.75.057.276.086.556.087.837v5.204a.086.086 0 00.067.099h2.092a.086.086 0 00.092-.074v-5.205c.001-.309.03-.618.086-.922a2.16 2.16 0 01.283-.738c.127-.206.305-.375.517-.492a1.61 1.61 0 01.806-.179c.287-.009.57.064.818.21.217.132.398.316.529.534.136.233.232.486.283.75.054.276.08.557.08.838v5.204a.087.087 0 00.041.087c.01.006.021.01.032.011h2.092a.086.086 0 00.092-.074v-5.345c0-1.47-.332-2.547-1.002-3.242a3.691 3.691 0 00-2.793-1.046z" fill="#CCC8C3"/><path d="M100.333 9.558a3.02 3.02 0 00-1.5.338c-.372.201-.709.46-.997.769-.056.08-.105.08-.154 0a2.952 2.952 0 00-.984-.8 3.223 3.223 0 00-1.458-.307c-.222 0-.444.03-.658.086a4.68 4.68 0 00-.646.215c-.197.08-.386.177-.566.29-.146.09-.282.195-.406.313-.062.061-.117.05-.166-.037l-.191-.566a.185.185 0 00-.185-.11h-1.784a.086.086 0 00-.098.067v9.344a.087.087 0 00.042.087c.01.006.02.01.032.012h2.091a.086.086 0 00.093-.074v-5.23a4.682 4.682 0 01.086-.922c.046-.26.14-.511.277-.738.127-.205.305-.375.516-.492.25-.13.53-.19.812-.179.287-.008.57.065.818.21.216.133.395.317.523.535.137.232.232.486.283.75.057.276.085.556.086.837v5.204a.086.086 0 00.068.099h2.092a.086.086 0 00.092-.074V13.98c.001-.31.03-.619.086-.923a2.16 2.16 0 01.283-.738c.127-.206.305-.375.517-.492a1.61 1.61 0 01.806-.179c.287-.009.57.064.818.21.217.132.398.316.529.534.136.233.232.486.283.751.054.275.081.556.08.837v5.204a.09.09 0 00.018.063.09.09 0 00.055.035h2.092a.086.086 0 00.092-.074v-5.364c0-1.47-.332-2.546-1.002-3.242a3.707 3.707 0 00-2.775-1.045z" fill="#CCC8C3"/><path d="M113.487 10.93a4.007 4.007 0 00-1.47-1.015 5.629 5.629 0 00-3.937 0 3.981 3.981 0 00-1.458 1.009 4.36 4.36 0 00-.911 1.556 5.976 5.976 0 00-.32 2.024 5.87 5.87 0 00.32 2.005 4.55 4.55 0 00.911 1.563c.401.446.9.793 1.458 1.015a5.629 5.629 0 003.937 0 4.006 4.006 0 001.47-1.015c.411-.45.725-.98.922-1.557a5.882 5.882 0 00.32-2.011c.008-.682-.1-1.36-.32-2.006a4.492 4.492 0 00-.922-1.568zm-1.624 5.678a2.177 2.177 0 01-1.846.768 2.145 2.145 0 01-1.79-.768 3.921 3.921 0 010-4.214 2.152 2.152 0 011.79-.77 2.172 2.172 0 011.846.77 3.921 3.921 0 010 4.214z" fill="#CCC8C3"/><path d="M123.952 10.911a3.214 3.214 0 00-1.23-.984 4.267 4.267 0 00-1.845-.37 2.47 2.47 0 00-.616.087 5.965 5.965 0 00-.615.203c-.193.08-.381.174-.56.283a2.6 2.6 0 00-.406.313c-.036.05-.073.068-.11.056a.164.164 0 01-.093-.074l-.209-.584c0-.062-.067-.093-.172-.093h-1.784a.077.077 0 00-.031.002.084.084 0 00-.051.037.079.079 0 00-.01.03v9.343a.083.083 0 00.014.063.087.087 0 00.054.036h2.091a.091.091 0 00.063-.018.087.087 0 00.035-.056v-5.34c0-.276.038-.551.111-.818.07-.26.193-.504.363-.713.176-.215.399-.386.652-.499.296-.133.617-.198.941-.19a1.902 1.902 0 011.606.78c.172.234.296.5.363.782.072.275.112.558.117.843v5.13a.083.083 0 00.014.063.085.085 0 00.053.036h2.092a.086.086 0 00.092-.074V14.03a6.84 6.84 0 00-.203-1.692 4.157 4.157 0 00-.726-1.427z" fill="#CCC8C3"/><path d="M140.375 9.749h-2.104c-.055 0-.092.036-.117.11l-1.501 7.253a.08.08 0 01-.014.036.088.088 0 01-.064.04.088.088 0 01-.038-.002.097.097 0 01-.074-.074l-1.729-7.253c-.024-.074-.067-.11-.129-.11h-3.008c-.062 0-.105.036-.129.11l-1.729 7.253c0 .068-.043.098-.098.098-.056 0-.08 0-.092-.098l-1.477-7.253a.144.144 0 00-.048-.079.142.142 0 00-.087-.031h-2.104c-.074 0-.098.036-.074.11l2.178 9.301c0 .062.061.099.117.099h3.211c.049 0 .086-.037.111-.099l1.617-7.283c0-.062.031-.092.093-.092.055 0 .086 0 .098.092l1.655 7.283c0 .062.061.099.111.099h3.211c.055 0 .092-.037.116-.099l2.178-9.3c.016-.075-.01-.111-.08-.111z" fill="#CCC8C3"/><path d="M145.742 9.589a4.71 4.71 0 00-1.845.35 4.143 4.143 0 00-1.433.997 4.423 4.423 0 00-.923 1.55 6.308 6.308 0 000 4.005c.203.57.516 1.095.923 1.544a4.04 4.04 0 001.433 1.008 4.82 4.82 0 001.845.351 4.92 4.92 0 002.762-.763 3.381 3.381 0 001.464-2.116v-.037h-2.257a.117.117 0 00-.117.068 1.341 1.341 0 01-.744.689c-.357.128-.735.19-1.114.184a2.771 2.771 0 01-.923-.153 2.394 2.394 0 01-.719-.419 1.939 1.939 0 01-.468-.615 1.813 1.813 0 01-.166-.756.112.112 0 01.005-.049.116.116 0 01.06-.073.12.12 0 01.046-.014h6.563s.037 0 .056-.067c.024-.106.043-.213.055-.32 0-.105 0-.253.037-.437a5.892 5.892 0 00-.326-1.987 4.581 4.581 0 00-.923-1.556 4.04 4.04 0 00-1.433-1.01 4.709 4.709 0 00-1.858-.374zm2.104 3.924h-4.263a.104.104 0 01-.104-.053.109.109 0 01-.013-.04c.004-.211.05-.42.136-.614a1.66 1.66 0 01.424-.615 2.33 2.33 0 01.714-.45 2.544 2.544 0 011.002-.184 2.68 2.68 0 011.009.172c.258.104.492.259.689.455.175.174.31.384.394.616.08.195.124.404.129.615a.11.11 0 01-.098.11l-.019-.012z" fill="#CCC8C3"/><path d="M162.299 6.027h2.067c.025 0 .049.01.068.026a.1.1 0 01.031.066V19.16a.1.1 0 01-.029.07.1.1 0 01-.07.028h-2.067a.1.1 0 01-.092-.098V6.119a.092.092 0 01.092-.092z" fill="#CCC8C3"/><path d="M171.835 9.748h-1.932a.08.08 0 01-.062-.016.074.074 0 01-.021-.026.06.06 0 01-.009-.031v-2.56a.112.112 0 00-.001-.031.079.079 0 00-.014-.029.077.077 0 00-.053-.032h-2.092a.08.08 0 00-.092.068v2.534a.092.092 0 01-.074.098h-1.562a.085.085 0 00-.098.068V11.6a.083.083 0 00.018.06.089.089 0 00.055.032h1.563a.085.085 0 01.087.042c.006.01.01.02.011.032v4.817a2.67 2.67 0 00.658 2.03 3.077 3.077 0 002.141.615h1.464a.086.086 0 00.092-.074v-1.9a.083.083 0 00-.014-.064.082.082 0 00-.053-.035h-1.329a.721.721 0 01-.48-.16.54.54 0 01-.197-.437v-4.743a.088.088 0 01.074-.098h1.938a.075.075 0 00.06-.014.085.085 0 00.022-.024.079.079 0 00.01-.03V9.841a.068.068 0 00-.001-.032.077.077 0 00-.037-.05.079.079 0 00-.029-.01h-.043z" fill="#CCC8C3"/><path d="M181.527 10.911a3.424 3.424 0 00-1.23-.984 3.922 3.922 0 00-1.772-.37c-.274 0-.548.038-.812.111a4.78 4.78 0 00-.677.259 2.91 2.91 0 00-.498.289c-.094.07-.185.147-.27.228-.05.049-.093.067-.13.055-.037-.013-.055-.05-.055-.11v-4.27a.084.084 0 00-.019-.06.083.083 0 00-.055-.032h-2.091a.081.081 0 00-.061.014.08.08 0 00-.021.024.08.08 0 00-.011.03V19.16a.093.093 0 00.014.063.087.087 0 00.054.036h2.092a.092.092 0 00.098-.074v-5.34a2.789 2.789 0 01.111-.812c.069-.251.193-.484.363-.683.182-.2.404-.362.652-.473a2.33 2.33 0 01.941-.179c.33-.008.657.064.953.21a1.94 1.94 0 011.015 1.285c.073.273.112.554.117.837v5.13a.093.093 0 00.014.063.087.087 0 00.054.036h2.091a.087.087 0 00.093-.074V14.03a5.867 5.867 0 00-.234-1.692 4.18 4.18 0 00-.726-1.427z" fill="#CCC8C3"/><path d="M155.601 13.39a6.148 6.148 0 00-1.802.246c-.465.138-.9.364-1.28.665a2.676 2.676 0 00-1.015 2.116c-.004.406.071.81.222 1.187.15.364.379.69.67.954.339.28.73.488 1.15.615a5.21 5.21 0 001.655.233 4.311 4.311 0 001.846-.356c.228-.11.447-.235.658-.376.055-.043.104-.08.154-.067a.24.24 0 01.104.086l.142.424a.165.165 0 00.166.099h1.79c.049 0 .074 0 .074-.074v-6.035a3.195 3.195 0 00-1.132-2.657 4.862 4.862 0 00-3.076-.898 5.888 5.888 0 00-1.575.209 3.942 3.942 0 00-1.31.615 3.134 3.134 0 00-.898 1.027 3 3 0 00-.332 1.44c0 .049 0 .074.073.074h2.049a.067.067 0 00.054-.02.064.064 0 00.016-.025 1.451 1.451 0 01.127-.51 1.03 1.03 0 01.326-.399 1.67 1.67 0 01.572-.277c.293-.075.595-.11.898-.104.371-.014.742.038 1.095.153.232.072.443.199.615.37.122.124.209.28.252.449.026.125.042.253.049.381a.419.419 0 01-.147.295.616.616 0 01-.437.136l-1.753.024zm-.4 4.023a2.389 2.389 0 01-.72-.092 1.412 1.412 0 01-.455-.24.783.783 0 01-.24-.32.795.795 0 01-.067-.326c.001-.136.023-.27.067-.4a.819.819 0 01.289-.387 1.85 1.85 0 01.616-.283 3.48 3.48 0 011.008-.11h2.141a.105.105 0 01.117.085 1.937 1.937 0 01-.154.72 1.852 1.852 0 01-.486.658 2.59 2.59 0 01-.849.48 3.65 3.65 0 01-1.267.215z" fill="#CCC8C3"/><path d="M55.046 9.275a3.396 3.396 0 014.127-1.052c.356.178.676.418.948.708.225.234.406.507.535.806.117.27.197.473.246.615.05.141.061.098.11.098h2.166c.01.002.022.001.033-.002a.08.08 0 00.06-.072 2.986 2.986 0 00-.124-.732 4.405 4.405 0 00-.393-.947 6.331 6.331 0 00-.708-1.009 4.811 4.811 0 00-1.052-.91 5.825 5.825 0 00-1.433-.659 6.44 6.44 0 00-1.846-.252 5.967 5.967 0 00-2.596.53 5.137 5.137 0 00-1.845 1.451 6.354 6.354 0 00-1.107 2.202 9.925 9.925 0 00-.37 2.756c-.012.922.113 1.84.37 2.725.221.77.598 1.486 1.107 2.104a4.922 4.922 0 001.846 1.36c.823.336 1.706.5 2.596.48.66.011 1.317-.08 1.95-.271a5.493 5.493 0 001.47-.708 4.78 4.78 0 001.033-.96 6.4 6.4 0 00.665-1.02c.154-.293.274-.603.356-.923.056-.201.09-.407.105-.615a.078.078 0 00-.015-.06.08.08 0 00-.053-.033H61.02c-.05 0-.086.031-.11.093-.038.11-.118.301-.235.572a3.34 3.34 0 01-.547.818 3.377 3.377 0 01-.954.683 3.2 3.2 0 01-1.488.307 3.132 3.132 0 01-2.645-1.23 5.469 5.469 0 01-.93-3.371 7.318 7.318 0 01.247-1.969 4.86 4.86 0 01.689-1.513z" fill="#CCC8C3"/><path d="M62.133 24.795h-9.19a.087.087 0 00-.098.068v13.065a.087.087 0 00.074.099h2.091a.074.074 0 00.033-.002.08.08 0 00.06-.072v-5.536a.063.063 0 01.01-.05.061.061 0 01.045-.024h5.247a.086.086 0 00.098-.068v-1.944a.086.086 0 00-.074-.092h-5.253a.063.063 0 01-.05-.01.064.064 0 01-.024-.045v-3.291a.063.063 0 01.011-.05.061.061 0 01.045-.024h6.975a.078.078 0 00.06-.015.08.08 0 00.033-.053v-1.907a.08.08 0 00-.074-.092l-.018.043z" fill="#CCC8C3"/><path d="M71.146 28.486h-2.085a.086.086 0 00-.099.067V33.9a2.7 2.7 0 01-.11.824 2.037 2.037 0 01-.363.708 1.926 1.926 0 01-.652.498 2.148 2.148 0 01-.942.185 1.882 1.882 0 01-1.605-.782 2.21 2.21 0 01-.363-.769 3.074 3.074 0 01-.117-.855v-5.13a.082.082 0 00-.014-.06.081.081 0 00-.053-.032H62.65a.079.079 0 00-.06.014.08.08 0 00-.032.053v5.13a6.79 6.79 0 00.203 1.692c.129.52.366 1.006.695 1.428.344.424.782.763 1.28.99a4.712 4.712 0 001.974.363 2.6 2.6 0 001.175-.283c.325-.153.62-.36.873-.615.037-.056.074-.074.111-.062a.2.2 0 01.092.08l.191.56a.203.203 0 00.19.117h1.785a.082.082 0 00.062-.017.08.08 0 00.03-.057v-9.295c0-.065-.025-.098-.074-.098z" fill="#CCC8C3"/><path d="M83.94 24.05a1.353 1.353 0 00-1.354 1.348v.012a1.354 1.354 0 002.7 0 1.347 1.347 0 00-1.347-1.347v-.012z" fill="#CCC8C3"/><path d="M82.901 28.486h2.073a.092.092 0 01.092.092v9.32a.099.099 0 01-.092.098h-2.073a.099.099 0 01-.092-.098v-9.314a.092.092 0 01.092-.098z" fill="#CCC8C3"/><path d="M94.853 29.673a4.04 4.04 0 00-1.476-1.015 5.629 5.629 0 00-3.937 0 3.913 3.913 0 00-1.452 1.009c-.409.45-.721.98-.916 1.556a6.644 6.644 0 000 4.036 4.68 4.68 0 00.916 1.556c.4.444.897.791 1.452 1.015a5.629 5.629 0 003.937 0 3.967 3.967 0 001.476-1.015c.411-.45.725-.98.923-1.556a6.496 6.496 0 000-4.017 4.495 4.495 0 00-.923-1.569zm-1.624 5.678a2.504 2.504 0 01-3.61 0 3.937 3.937 0 010-4.208 2.46 2.46 0 013.61 0 3.937 3.937 0 010 4.208z" fill="#CCC8C3"/><path d="M105.343 29.654a3.214 3.214 0 00-1.23-.984 4.27 4.27 0 00-1.846-.369 2.464 2.464 0 00-.615.086 4.867 4.867 0 00-.615.21 3.39 3.39 0 00-.56.276 2.56 2.56 0 00-.406.314c-.037.05-.074.068-.11.055a.16.16 0 01-.093-.073l-.209-.616c0-.061-.068-.092-.172-.092h-1.784a.078.078 0 00-.06.015.08.08 0 00-.032.053v9.344a.087.087 0 00.067.098h2.092a.085.085 0 00.064-.016.086.086 0 00.034-.058v-5.34c0-.276.037-.55.11-.817.07-.261.194-.504.364-.714.177-.213.4-.383.652-.498a2.15 2.15 0 01.941-.19 1.908 1.908 0 011.606.78c.169.235.292.5.362.782.073.275.112.558.117.843v5.13a.093.093 0 00.014.063.087.087 0 00.054.035h2.092a.083.083 0 00.062-.017.075.075 0 00.021-.025.088.088 0 00.009-.032v-5.105a6.841 6.841 0 00-.203-1.692 4.163 4.163 0 00-.726-1.446z" fill="#CCC8C3"/><path d="M120.793 31.605a3.417 3.417 0 00-.922-.702 5.737 5.737 0 00-1.083-.443 7.934 7.934 0 00-1.132-.252 23.454 23.454 0 00-1.064-.141 6.62 6.62 0 01-.781-.111 4.218 4.218 0 01-.862-.258 1.744 1.744 0 01-.615-.456 1.03 1.03 0 01-.24-.713c-.003-.25.061-.497.185-.714.125-.235.295-.444.498-.615.218-.175.466-.308.732-.394.293-.099.601-.146.911-.141a3.17 3.17 0 011.045.16c.278.097.537.242.763.43.196.153.358.346.474.566a1.39 1.39 0 01.161.647.077.077 0 00.037.05c.009.006.019.01.029.01h2.178c.049 0 .074-.03.074-.091a3.251 3.251 0 00-.394-1.625 3.65 3.65 0 00-1.058-1.193 4.978 4.978 0 00-1.532-.744 6.2 6.2 0 00-1.808-.252 5.615 5.615 0 00-1.716.264 4.82 4.82 0 00-1.495.757c-.437.331-.799.75-1.064 1.23a3.385 3.385 0 00-.4 1.655 3.61 3.61 0 00.357 1.685c.235.457.585.845 1.015 1.126a5.099 5.099 0 001.587.677 11.81 11.81 0 001.907.301 3.925 3.925 0 012.085.658 1.414 1.414 0 01.431 1.926 1.946 1.946 0 01-.573.615 3.01 3.01 0 01-.861.418c-.35.112-.715.166-1.082.16a3.733 3.733 0 01-1.108-.148 3.347 3.347 0 01-.885-.387 1.887 1.887 0 01-.616-.554 1.144 1.144 0 01-.217-.69.067.067 0 00-.014-.03.08.08 0 00-.058-.03h-2.183a.08.08 0 00-.082.038.08.08 0 00-.011.03c.004.463.101.92.283 1.347.199.473.504.894.892 1.23a4.66 4.66 0 001.587.892 6.97 6.97 0 002.387.344 7.26 7.26 0 002.122-.276 4.59 4.59 0 001.6-.819 3.571 3.571 0 001.027-1.236c.241-.527.361-1.1.351-1.68.012-.5-.068-.998-.234-1.47a3.256 3.256 0 00-.628-1.051z" fill="#CCC8C3"/><path d="M131.615 28.486h-2.183c-.05 0-.087.03-.111.092l-2.276 7.29a.093.093 0 01-.111.067.093.093 0 01-.058-.018.088.088 0 01-.034-.05l-2.276-7.277c-.025-.061-.062-.092-.111-.092h-2.202c-.086 0-.117.03-.092.092l3.137 9.326c.08.246.141.48.19.701a1.36 1.36 0 010 .616.634.634 0 01-.27.418 1.232 1.232 0 01-.671.147h-2.257a.08.08 0 00-.082.038.103.103 0 00-.011.03v1.796a.082.082 0 00.042.083c.01.006.021.009.032.01h2.787a2.936 2.936 0 001.913-.585 3.807 3.807 0 001.126-1.784l.492-1.445 3.119-9.326c.037-.086.006-.13-.093-.13z" fill="#CCC8C3"/><path d="M147.198 28.486h-1.907a.075.075 0 01-.06-.014.085.085 0 01-.022-.024.079.079 0 01-.01-.03v-2.565a.082.082 0 00-.042-.083.08.08 0 00-.032-.01h-2.092a.08.08 0 00-.092.068v2.565a.085.085 0 01-.001.032.077.077 0 01-.037.05.077.077 0 01-.03.01h-1.581a.08.08 0 00-.092.068v1.809a.078.078 0 00.002.034.107.107 0 00.014.03.088.088 0 00.058.034h1.556a.083.083 0 01.061.015.081.081 0 01.021.023.08.08 0 01.011.03v4.817a2.677 2.677 0 00.658 2.03 3.075 3.075 0 002.141.615h1.47a.078.078 0 00.062-.017.076.076 0 00.021-.025.088.088 0 00.009-.032v-1.9a.082.082 0 00-.042-.083.082.082 0 00-.032-.01h-1.353a.751.751 0 01-.48-.16.519.519 0 01-.197-.443v-4.774a.084.084 0 01.001-.031.078.078 0 01.014-.029.077.077 0 01.053-.032h1.944a.082.082 0 00.033-.002.087.087 0 00.029-.014.074.074 0 00.021-.026.087.087 0 00.009-.032v-1.808a.082.082 0 00-.042-.083.082.082 0 00-.032-.01l-.012.007z" fill="#CCC8C3"/><path d="M168.767 28.295a3.074 3.074 0 00-1.507.338 4.06 4.06 0 00-.997.775c-.049.074-.098.074-.147 0a2.812 2.812 0 00-.985-.8 3.145 3.145 0 00-2.116-.227 5.05 5.05 0 00-.652.215 4.098 4.098 0 00-.56.296 2.23 2.23 0 00-.406.307c-.061.062-.116.05-.166-.037l-.19-.566a.192.192 0 00-.191-.11h-1.784a.075.075 0 00-.06.014.085.085 0 00-.022.023.079.079 0 00-.01.03v9.35a.068.068 0 00.001.032.077.077 0 00.037.05c.009.006.019.01.029.01h2.092a.087.087 0 00.065-.015.09.09 0 00.033-.058v-5.229a4.618 4.618 0 01.08-.916 2.15 2.15 0 01.283-.745c.129-.204.307-.373.517-.492a1.77 1.77 0 01.812-.178 1.57 1.57 0 01.812.21c.216.134.397.317.529.534.136.232.232.486.283.75.053.277.082.556.086.837v5.21a.085.085 0 00.001.032c.003.01.007.02.013.029a.093.093 0 00.024.021c.009.006.019.01.03.01h2.122a.08.08 0 00.092-.073v-5.229a5.12 5.12 0 01.086-.916 2.15 2.15 0 01.283-.745c.129-.204.307-.373.517-.492.25-.123.527-.184.806-.178.287-.006.57.066.818.21.214.136.395.318.529.534.135.233.228.487.277.75.056.276.085.556.086.837v5.21a.082.082 0 00.042.083.08.08 0 00.032.01h2.091a.083.083 0 00.063-.017.09.09 0 00.021-.025.088.088 0 00.009-.032v-5.34c0-1.463-.337-2.544-1.009-3.241a3.693 3.693 0 00-2.799-1.046z" fill="#CCC8C3"/><path d="M79.555 32.669a5.269 5.269 0 00-1.41-.394l-1.377-.178c-.21 0-.418-.056-.615-.093a4.11 4.11 0 01-.542-.141 1.04 1.04 0 01-.387-.234.524.524 0 01-.154-.393.75.75 0 01.43-.652 3.217 3.217 0 012.154-.123c.223.057.432.16.615.3.14.111.25.255.32.42a1.084 1.084 0 01.093.424.08.08 0 00.067.061h2.023a.075.075 0 00.059-.015.073.073 0 00.028-.052 3.194 3.194 0 00-.302-1.385 2.958 2.958 0 00-.843-1.027 3.586 3.586 0 00-1.28-.615 6.152 6.152 0 00-1.641-.21 5.14 5.14 0 00-1.588.235 3.99 3.99 0 00-1.23.615 2.768 2.768 0 00-.787.916 2.64 2.64 0 00.086 2.516c.242.353.567.64.947.837.413.21.855.356 1.31.437.492.086.985.153 1.465.203.19.03.4.049.615.067.208.019.414.058.615.117.181.048.35.136.492.258a.615.615 0 01.203.499.861.861 0 01-.197.578 1.23 1.23 0 01-.486.338c-.197.078-.404.13-.615.154-1.015.11-1.74 0-2.14-.363a1.157 1.157 0 01-.468-.836.104.104 0 000-.062.104.104 0 00-.062 0h-2.085a.098.098 0 00-.055 0 .08.08 0 000 .05 2.935 2.935 0 001.076 2.226c.396.323.846.573 1.329.738.595.196 1.219.29 1.845.277 1.07.06 2.132-.22 3.033-.8a2.669 2.669 0 001.107-2.3 2.461 2.461 0 00-.443-1.538 2.965 2.965 0 00-1.206-.855z" fill="#CCC8C3"/><path d="M181.899 33.512a2.966 2.966 0 00-1.101-.843 5.274 5.274 0 00-1.409-.394l-1.378-.178c-.209 0-.418-.056-.615-.093a3.862 3.862 0 01-.541-.14 1.044 1.044 0 01-.388-.235.524.524 0 01-.154-.393.75.75 0 01.431-.652 3.217 3.217 0 012.153-.123c.213.061.411.164.584.3.141.111.251.255.32.42a1.072 1.072 0 01.094.425c.002.01.007.02.013.028a.077.077 0 00.053.032h2.024a.073.073 0 00.06-.017.073.073 0 00.02-.025.084.084 0 00.006-.032 3.182 3.182 0 00-.301-1.384 2.968 2.968 0 00-.843-1.027 3.584 3.584 0 00-1.279-.615 6.161 6.161 0 00-1.643-.21 5.142 5.142 0 00-1.587.234 4.003 4.003 0 00-1.23.616 2.694 2.694 0 00-.788.916 2.643 2.643 0 00.086 2.516c.246.35.573.636.954.83.415.21.859.356 1.316.437.492.087.978.154 1.464.203.191.031.4.05.616.068.208.019.414.058.615.117.181.047.35.136.492.258a.62.62 0 01.203.498.863.863 0 01-.197.579 1.341 1.341 0 01-.486.338 2.46 2.46 0 01-.615.154c-1.015.11-1.741 0-2.141-.363a1.188 1.188 0 01-.474-.837.093.093 0 000-.061.104.104 0 00-.061 0h-2.085a.1.1 0 00-.056 0 .083.083 0 000 .049 2.887 2.887 0 001.077 2.227c.395.323.845.573 1.328.738a5.54 5.54 0 001.846.277 5.08 5.08 0 003.033-.8 2.69 2.69 0 001.107-2.3 2.46 2.46 0 00-.523-1.538z" fill="#CCC8C3"/><path d="M152.969 28.338a4.715 4.715 0 00-1.846.351 4.152 4.152 0 00-1.433.997c-.406.45-.72.977-.923 1.55a6.321 6.321 0 000 4.004c.203.571.517 1.096.923 1.544.4.436.889.78 1.433 1.01a4.83 4.83 0 001.846.35 4.922 4.922 0 002.762-.763 3.396 3.396 0 001.47-2.116v-.012h-2.264a.117.117 0 00-.117.067 1.307 1.307 0 01-.744.69 3.112 3.112 0 01-1.113.184 2.774 2.774 0 01-.923-.154 2.47 2.47 0 01-.72-.418 1.797 1.797 0 01-.633-1.372.13.13 0 01.004-.048.136.136 0 01.023-.043.121.121 0 01.083-.044h6.564s.043 0 .062-.068c.018-.068.036-.215.049-.32.012-.104 0-.252.037-.436a5.892 5.892 0 00-.326-1.987 4.408 4.408 0 00-.923-1.557 4.05 4.05 0 00-1.433-1.009 4.715 4.715 0 00-1.858-.4zm2.104 3.925h-4.239a.111.111 0 01-.117-.092 1.59 1.59 0 01.136-.615c.099-.223.243-.422.424-.585.21-.19.451-.342.714-.449.318-.128.659-.19 1.003-.184.346-.008.69.05 1.014.172.258.104.493.259.689.455a1.723 1.723 0 01.517 1.23.104.104 0 01-.092.111l-.049-.043z" fill="#CCC8C3"/><path d="M139.001 32.669a5.347 5.347 0 00-1.409-.394l-1.384-.178c-.209 0-.418-.056-.615-.093a4.136 4.136 0 01-.542-.141 1.04 1.04 0 01-.387-.234.517.517 0 01-.154-.394.75.75 0 01.431-.652 3.217 3.217 0 012.153-.122c.223.057.432.16.615.3.14.111.25.255.32.42a1.245 1.245 0 01.1.426.082.082 0 00.04.05.12.12 0 00.032.01h2.018c.01 0 .02 0 .03-.002a.077.077 0 00.028-.014.064.064 0 00.019-.023.076.076 0 00.009-.03 3.081 3.081 0 00-.302-1.384 2.954 2.954 0 00-.842-1.027 3.597 3.597 0 00-1.28-.615 6.149 6.149 0 00-1.642-.21 5.138 5.138 0 00-1.587.235 4.094 4.094 0 00-1.231.615 2.778 2.778 0 00-.787.916c-.18.346-.275.73-.277 1.12a2.46 2.46 0 00.363 1.396c.226.341.53.624.886.825.413.209.854.356 1.31.436.492.086.984.154 1.464.203.191.031.4.05.615.068.209.019.415.058.616.117.183.048.353.136.498.258a.616.616 0 01.197.498.863.863 0 01-.197.579 1.23 1.23 0 01-.486.338 2.41 2.41 0 01-.615.154c-1.015.11-1.741 0-2.141-.363a1.165 1.165 0 01-.468-.837.093.093 0 000-.061.097.097 0 00-.055 0h-2.091a.1.1 0 00-.056 0 2.94 2.94 0 001.077 2.276 4.23 4.23 0 001.335.738 5.452 5.452 0 001.845.277c1.07.06 2.132-.22 3.033-.8a2.665 2.665 0 001.107-2.3 2.46 2.46 0 00-.443-1.538 3 3 0 00-1.15-.843z" fill="#CCC8C3"/></svg>